<svg width="30" height="27" viewBox="0 0 30 27" fill="none" xmlns="http://www.w3.org/2000/svg">
    <path fill-rule="evenodd" clip-rule="evenodd"
          d="M3.24698 10.6827L1.62475 11.5497C1.54862 11.5964 1.44852 11.6227 1.36101 11.6227C1.18622 11.6227 1.03132 11.5359 0.929298 11.3951C0.791752 11.1444 0.877912 10.8633 1.12318 10.7507L2.75201 9.88002L1.17892 9.30385C0.921654 9.20916 0.793741 8.92963 0.896785 8.69259C0.999691 8.45587 1.30351 8.33816 1.56042 8.43272L3.87602 9.27208L5.33444 8.49673C5.27182 8.29575 5.23677 8.09186 5.23677 7.89667C5.23677 7.68051 5.26641 7.48417 5.33076 7.29464L3.87601 6.52124L1.57252 7.35565C1.53702 7.37198 1.49936 7.38019 1.45717 7.38407C1.43213 7.38638 1.41117 7.38688 1.37906 7.38683C1.16864 7.38683 0.970601 7.26535 0.896785 7.08413C0.793741 6.8471 0.921654 6.56756 1.17916 6.47279L2.75202 5.89669L1.12568 5.0273C0.883272 4.90338 0.794907 4.61511 0.941036 4.39116C1.07571 4.1681 1.38903 4.08679 1.63495 4.22257L3.26157 5.09209L3.0187 3.56924C2.96798 3.31257 3.1645 3.07388 3.4596 3.02507C3.73719 3.00185 3.98624 3.16851 4.03689 3.42538L4.38763 5.68452L5.84186 6.45765C6.13807 6.16169 6.53809 5.9532 6.98789 5.85725V4.30975L5.0172 2.9009C4.80929 2.73351 4.77094 2.45127 4.94893 2.24108C5.13086 2.04976 5.43763 2.01448 5.65968 2.17339L6.98789 3.12862V1.38511C6.98789 1.12618 7.21752 0.914888 7.49894 0.914888C7.78037 0.914888 8.01 1.12618 8.01 1.38511V3.12606L9.33849 2.15658C9.56714 1.99293 9.87772 2.02151 10.0545 2.23062C10.2323 2.441 10.2013 2.72674 9.97459 2.88895L8.01 4.30929V5.85394C8.45008 5.93821 8.8533 6.15259 9.15624 6.45753L10.6103 5.68452L10.9619 3.42021C11.0132 3.16089 11.2726 2.98005 11.5515 3.02673C11.8334 3.07388 12.0299 3.31257 11.98 3.56459L11.7363 5.09213L13.3551 4.22707C13.5913 4.08215 13.9035 4.1558 14.0505 4.38163C14.208 4.59898 14.128 4.88617 13.8747 5.02599L12.2459 5.8967L13.819 6.47287C14.0762 6.56756 14.2041 6.8471 14.096 7.0946C13.9985 7.27394 13.8213 7.38683 13.6188 7.38683C13.5867 7.38688 13.5658 7.38638 13.5407 7.38407C13.4985 7.38019 13.4609 7.37198 13.4375 7.36062L11.1219 6.52125L9.66344 7.2966C9.72607 7.49758 9.76112 7.70147 9.76112 7.89667C9.76112 8.11282 9.73148 8.30917 9.66713 8.49869L11.1219 9.27208L13.4367 8.43298C13.6944 8.33816 13.9982 8.45587 14.1011 8.69259C14.2041 8.92963 14.0762 9.20916 13.8187 9.30393L12.2459 9.88003L13.8722 10.7494C14.1146 10.8733 14.203 11.1616 14.0599 11.3803C13.9802 11.527 13.8019 11.6227 13.6188 11.6227C13.5313 11.6227 13.4312 11.5964 13.3629 11.5542L11.7363 10.6846L11.9792 12.2075C12.0299 12.4642 11.8334 12.7028 11.5247 12.7522H11.4705C11.2108 12.7522 10.9858 12.5809 10.961 12.3513L10.6103 10.0922L9.15603 9.31907C8.85982 9.61503 8.4598 9.82353 8.01 9.91947V11.4836L9.98069 12.8924C10.1886 13.0598 10.2269 13.3421 10.049 13.5523C9.86703 13.7436 9.56025 13.7789 9.33821 13.6199L8.01 12.6647V14.3916C8.01 14.6505 7.78037 14.8618 7.49894 14.8618C7.21752 14.8618 6.98789 14.6505 6.98789 14.3916V12.6697L5.67337 13.642C5.59218 13.7167 5.47334 13.7489 5.35067 13.7489C5.19589 13.7489 5.04484 13.6794 4.94341 13.5627C4.76558 13.3523 4.79664 13.0666 5.0233 12.9044L6.98789 11.484V9.93939C6.54781 9.85512 6.14459 9.64074 5.84165 9.3358L4.38762 10.1088L4.03548 12.3755C3.98531 12.6063 3.77928 12.7688 3.52734 12.7688C3.50698 12.7688 3.49683 12.7688 3.48668 12.7686C3.47659 12.7683 3.4665 12.7677 3.44639 12.7666L3.44634 12.7666C3.1645 12.7195 2.96798 12.4808 3.01766 12.2301L3.24698 10.6827ZM26.2403 7.09013C26.4356 6.91049 26.7522 6.91049 26.9474 7.09013C27.1427 7.26977 27.1427 7.56103 26.9474 7.74067L25.7333 8.85769C25.538 9.03733 25.2214 9.03733 25.0262 8.85769C24.8309 8.67805 24.8309 8.38679 25.0262 8.20715L26.2403 7.09013ZM29.2077 7.21873C29.0124 7.03909 28.6958 7.03909 28.5005 7.21873L25.4219 10.0511C25.2266 10.2308 25.2266 10.522 25.4219 10.7017C25.6171 10.8813 25.9337 10.8813 26.129 10.7017L29.2077 7.86927C29.4029 7.68963 29.4029 7.39837 29.2077 7.21873ZM27.955 13.0363C27.2087 12.3421 26.1816 11.9657 25.0607 11.9657C24.6484 11.9657 24.2363 12.0211 23.8246 12.1319C23.9409 11.7777 24.0005 11.3978 24.0005 11.0143C24.0005 9.98078 23.5632 9.02177 22.7709 8.32159C22.5789 8.14292 22.2829 8.14292 22.0891 8.32324C21.3237 9.07269 20.9 10.0341 20.9 11.0503C20.9 12.0703 21.3264 12.9958 22.1277 13.7413C22.9235 14.4446 23.9158 14.812 25.0221 14.812C26.1428 14.812 27.2098 14.3992 27.9568 13.6677C28.0542 13.5771 28.1 13.4814 28.1 13.3528C28.1 13.2243 28.0542 13.1286 27.955 13.0363ZM22.4717 12.6918C22.08 12.1609 21.8734 11.6023 21.8734 11.0143C21.8734 10.4266 22.0707 9.83838 22.4345 9.33581C22.8299 9.83444 23.027 10.3931 23.027 11.0143C23.027 11.6329 22.8316 12.2203 22.4717 12.6918ZM25.0221 13.9444C25.6606 13.9444 26.2955 13.7468 26.8608 13.3891C26.3215 13.0519 25.6907 12.8692 25.0607 12.8692C24.3837 12.8692 23.7509 13.0576 23.2171 13.4218C23.7642 13.7676 24.3667 13.9444 25.0221 13.9444ZM24.955 15.7963C24.2087 15.1021 23.1816 14.7257 22.0607 14.7257C21.6484 14.7257 21.2363 14.7811 20.8246 14.8919C20.9409 14.5377 21.0005 14.1578 21.0005 13.7743C21.0005 12.7408 20.5632 11.7818 19.7709 11.0816C19.5789 10.9029 19.2829 10.9029 19.0891 11.0832C18.3237 11.8327 17.9 12.7941 17.9 13.8103C17.9 14.8303 18.3264 15.7558 19.1277 16.5013C19.9235 17.2046 20.9158 17.572 22.0221 17.572C23.1428 17.572 24.2098 17.1592 24.9568 16.4277C25.0542 16.3371 25.1 16.2414 25.1 16.1128C25.1 15.9843 25.0542 15.8886 24.955 15.7963ZM18.8734 13.7743C18.8734 14.3623 19.08 14.9209 19.4717 15.4518C19.8316 14.9803 20.027 14.3929 20.027 13.7743C20.027 13.1531 19.8299 12.5944 19.4345 12.0958C19.0707 12.5984 18.8734 13.1866 18.8734 13.7743ZM23.8608 16.1491C23.2955 16.5068 22.6606 16.7044 22.0221 16.7044C21.3667 16.7044 20.7642 16.5276 20.2171 16.1818C20.7509 15.8176 21.3837 15.6292 22.0607 15.6292C22.6907 15.6292 23.3215 15.8119 23.8608 16.1491ZM19.0607 17.4857C20.1816 17.4857 21.2087 17.8621 21.955 18.5563C22.0542 18.6486 22.1 18.7443 22.1 18.8728C22.1 19.0014 22.0542 19.0971 21.9568 19.1877C21.2098 19.9192 20.1428 20.332 19.0221 20.332C17.9158 20.332 16.9235 19.9646 16.1277 19.2613C15.3264 18.5158 14.9 17.5903 14.9 16.5703C14.9 15.5541 15.3237 14.5927 16.0891 13.8432C16.2829 13.6629 16.5789 13.6629 16.7709 13.8416C17.5632 14.5418 18.0005 15.5008 18.0005 16.5343C18.0005 16.9178 17.9409 17.2977 17.8246 17.6519C18.2363 17.5411 18.6484 17.4857 19.0607 17.4857ZM16.4717 18.2118C16.08 17.6809 15.8734 17.1223 15.8734 16.5343C15.8734 15.9466 16.0707 15.3584 16.4345 14.8558C16.8299 15.3544 17.027 15.9131 17.027 16.5343C17.027 17.1529 16.8316 17.7403 16.4717 18.2118ZM19.0221 19.4644C19.6606 19.4644 20.2955 19.2668 20.8608 18.9091C20.3215 18.5719 19.6907 18.3892 19.0607 18.3892C18.3837 18.3892 17.7509 18.5776 17.2171 18.9418C17.7642 19.2876 18.3667 19.4644 19.0221 19.4644ZM18.955 21.3163C18.2087 20.6221 17.1816 20.2457 16.0607 20.2457C15.6484 20.2457 15.2363 20.3011 14.8246 20.4119C14.9409 20.0577 15.0005 19.6778 15.0005 19.2943C15.0005 18.2608 14.5632 17.3018 13.7709 16.6016C13.5789 16.4229 13.2829 16.4229 13.0891 16.6032C12.3237 17.3527 11.9 18.3141 11.9 19.3303C11.9 20.3503 12.3264 21.2758 13.1277 22.0213C13.9235 22.7246 14.9158 23.092 16.0221 23.092C17.1428 23.092 18.2098 22.6792 18.9568 21.9477C19.0542 21.8571 19.1 21.7614 19.1 21.6328C19.1 21.5043 19.0542 21.4086 18.955 21.3163ZM12.8734 19.2943C12.8734 19.8823 13.08 20.4409 13.4717 20.9718C13.8316 20.5003 14.027 19.9129 14.027 19.2943C14.027 18.6731 13.8299 18.1144 13.4345 17.6158C13.0707 18.1184 12.8734 18.7066 12.8734 19.2943ZM17.8608 21.6691C17.2955 22.0268 16.6606 22.2244 16.0221 22.2244C15.3667 22.2244 14.7642 22.0476 14.2171 21.7018C14.7509 21.3376 15.3837 21.1492 16.0607 21.1492C16.6907 21.1492 17.3215 21.3319 17.8608 21.6691ZM10.5027 25.0778L9.12897 26.3417C8.93371 26.5213 8.61713 26.5213 8.42187 26.3417C8.2266 26.162 8.2266 25.8708 8.42187 25.6911L9.7907 24.4318C9.20736 23.7543 8.89995 22.9563 8.89995 22.0903C8.89995 21.0741 9.32369 20.1127 10.0891 19.3632C10.2829 19.1829 10.5789 19.1829 10.7709 19.3616C11.5632 20.0618 12.0005 21.0208 12.0005 22.0543C12.0005 22.4378 11.9409 22.8177 11.8246 23.1719C12.2363 23.0611 12.6484 23.0057 13.0607 23.0057C14.1816 23.0057 15.2087 23.3821 15.955 24.0763C16.0542 24.1686 16.1 24.2643 16.1 24.3928C16.1 24.5214 16.0542 24.6171 15.9568 24.7077C15.2098 25.4392 14.1428 25.852 13.0221 25.852C12.0835 25.852 11.2268 25.5875 10.5027 25.0778ZM10.4717 23.7318C10.08 23.2009 9.87343 22.6423 9.87343 22.0543C9.87343 21.4666 10.0707 20.8784 10.4345 20.3758C10.8299 20.8744 11.027 21.4331 11.027 22.0543C11.027 22.6729 10.8316 23.2603 10.4717 23.7318ZM13.0221 24.9844C13.6606 24.9844 14.2955 24.7868 14.8608 24.4291C14.3215 24.0919 13.6907 23.9092 13.0607 23.9092C12.3837 23.9092 11.7509 24.0976 11.2171 24.4618C11.7642 24.8076 12.3667 24.9844 13.0221 24.9844ZM29.3474 9.29813C29.1522 9.11849 28.8356 9.11849 28.6403 9.29813L27.4262 10.4152C27.2309 10.5948 27.2309 10.886 27.4262 11.0657C27.6214 11.2453 27.938 11.2453 28.1333 11.0657L29.3474 9.94867C29.5427 9.76903 29.5427 9.47777 29.3474 9.29813ZM7.49894 9.03772C6.80552 9.03772 6.25888 8.53473 6.25888 7.89667C6.25888 7.26459 6.81702 6.75561 7.49894 6.75561C8.18586 6.75561 8.73901 7.26917 8.73901 7.89667C8.73901 8.52874 8.18087 9.03772 7.49894 9.03772Z"
          fill="#333333"/>
    <mask id="mask0" mask-type="alpha" maskUnits="userSpaceOnUse" x="0" y="0" width="30" height="27">
        <path fill-rule="evenodd" clip-rule="evenodd"
              d="M3.24698 10.6827L1.62475 11.5497C1.54862 11.5964 1.44852 11.6227 1.36101 11.6227C1.18622 11.6227 1.03132 11.5359 0.929298 11.3951C0.791752 11.1444 0.877912 10.8633 1.12318 10.7507L2.75201 9.88002L1.17892 9.30385C0.921654 9.20916 0.793741 8.92963 0.896785 8.69259C0.999691 8.45587 1.30351 8.33816 1.56042 8.43272L3.87602 9.27208L5.33444 8.49673C5.27182 8.29575 5.23677 8.09186 5.23677 7.89667C5.23677 7.68051 5.26641 7.48417 5.33076 7.29464L3.87601 6.52124L1.57252 7.35565C1.53702 7.37198 1.49936 7.38019 1.45717 7.38407C1.43213 7.38638 1.41117 7.38688 1.37906 7.38683C1.16864 7.38683 0.970601 7.26535 0.896785 7.08413C0.793741 6.8471 0.921654 6.56756 1.17916 6.47279L2.75202 5.89669L1.12568 5.0273C0.883272 4.90338 0.794907 4.61511 0.941036 4.39116C1.07571 4.1681 1.38903 4.08679 1.63495 4.22257L3.26157 5.09209L3.0187 3.56924C2.96798 3.31257 3.1645 3.07388 3.4596 3.02507C3.73719 3.00185 3.98624 3.16851 4.03689 3.42538L4.38763 5.68452L5.84186 6.45765C6.13807 6.16169 6.53809 5.9532 6.98789 5.85725V4.30975L5.0172 2.9009C4.80929 2.73351 4.77094 2.45127 4.94893 2.24108C5.13086 2.04976 5.43763 2.01448 5.65968 2.17339L6.98789 3.12862V1.38511C6.98789 1.12618 7.21752 0.914888 7.49894 0.914888C7.78037 0.914888 8.01 1.12618 8.01 1.38511V3.12606L9.33849 2.15658C9.56714 1.99293 9.87772 2.02151 10.0545 2.23062C10.2323 2.441 10.2013 2.72674 9.97459 2.88895L8.01 4.30929V5.85394C8.45008 5.93821 8.8533 6.15259 9.15624 6.45753L10.6103 5.68452L10.9619 3.42021C11.0132 3.16089 11.2726 2.98005 11.5515 3.02673C11.8334 3.07388 12.0299 3.31257 11.98 3.56459L11.7363 5.09213L13.3551 4.22707C13.5913 4.08215 13.9035 4.1558 14.0505 4.38163C14.208 4.59898 14.128 4.88617 13.8747 5.02599L12.2459 5.8967L13.819 6.47287C14.0762 6.56756 14.2041 6.8471 14.096 7.0946C13.9985 7.27394 13.8213 7.38683 13.6188 7.38683C13.5867 7.38688 13.5658 7.38638 13.5407 7.38407C13.4985 7.38019 13.4609 7.37198 13.4375 7.36062L11.1219 6.52125L9.66344 7.2966C9.72607 7.49758 9.76112 7.70147 9.76112 7.89667C9.76112 8.11282 9.73148 8.30917 9.66713 8.49869L11.1219 9.27208L13.4367 8.43298C13.6944 8.33816 13.9982 8.45587 14.1011 8.69259C14.2041 8.92963 14.0762 9.20916 13.8187 9.30393L12.2459 9.88003L13.8722 10.7494C14.1146 10.8733 14.203 11.1616 14.0599 11.3803C13.9802 11.527 13.8019 11.6227 13.6188 11.6227C13.5313 11.6227 13.4312 11.5964 13.3629 11.5542L11.7363 10.6846L11.9792 12.2075C12.0299 12.4642 11.8334 12.7028 11.5247 12.7522H11.4705C11.2108 12.7522 10.9858 12.5809 10.961 12.3513L10.6103 10.0922L9.15603 9.31907C8.85982 9.61503 8.4598 9.82353 8.01 9.91947V11.4836L9.98069 12.8924C10.1886 13.0598 10.2269 13.3421 10.049 13.5523C9.86703 13.7436 9.56025 13.7789 9.33821 13.6199L8.01 12.6647V14.3916C8.01 14.6505 7.78037 14.8618 7.49894 14.8618C7.21752 14.8618 6.98789 14.6505 6.98789 14.3916V12.6697L5.67337 13.642C5.59218 13.7167 5.47334 13.7489 5.35067 13.7489C5.19589 13.7489 5.04484 13.6794 4.94341 13.5627C4.76558 13.3523 4.79664 13.0666 5.0233 12.9044L6.98789 11.484V9.93939C6.54781 9.85512 6.14459 9.64074 5.84165 9.3358L4.38762 10.1088L4.03548 12.3755C3.98531 12.6063 3.77928 12.7688 3.52734 12.7688C3.50698 12.7688 3.49683 12.7688 3.48668 12.7686C3.47659 12.7683 3.4665 12.7677 3.44639 12.7666L3.44634 12.7666C3.1645 12.7195 2.96798 12.4808 3.01766 12.2301L3.24698 10.6827ZM26.2403 7.09013C26.4356 6.91049 26.7522 6.91049 26.9474 7.09013C27.1427 7.26977 27.1427 7.56103 26.9474 7.74067L25.7333 8.85769C25.538 9.03733 25.2214 9.03733 25.0262 8.85769C24.8309 8.67805 24.8309 8.38679 25.0262 8.20715L26.2403 7.09013ZM29.2077 7.21873C29.0124 7.03909 28.6958 7.03909 28.5005 7.21873L25.4219 10.0511C25.2266 10.2308 25.2266 10.522 25.4219 10.7017C25.6171 10.8813 25.9337 10.8813 26.129 10.7017L29.2077 7.86927C29.4029 7.68963 29.4029 7.39837 29.2077 7.21873ZM27.955 13.0363C27.2087 12.3421 26.1816 11.9657 25.0607 11.9657C24.6484 11.9657 24.2363 12.0211 23.8246 12.1319C23.9409 11.7777 24.0005 11.3978 24.0005 11.0143C24.0005 9.98078 23.5632 9.02177 22.7709 8.32159C22.5789 8.14292 22.2829 8.14292 22.0891 8.32324C21.3237 9.07269 20.9 10.0341 20.9 11.0503C20.9 12.0703 21.3264 12.9958 22.1277 13.7413C22.9235 14.4446 23.9158 14.812 25.0221 14.812C26.1428 14.812 27.2098 14.3992 27.9568 13.6677C28.0542 13.5771 28.1 13.4814 28.1 13.3528C28.1 13.2243 28.0542 13.1286 27.955 13.0363ZM22.4717 12.6918C22.08 12.1609 21.8734 11.6023 21.8734 11.0143C21.8734 10.4266 22.0707 9.83838 22.4345 9.33581C22.8299 9.83444 23.027 10.3931 23.027 11.0143C23.027 11.6329 22.8316 12.2203 22.4717 12.6918ZM25.0221 13.9444C25.6606 13.9444 26.2955 13.7468 26.8608 13.3891C26.3215 13.0519 25.6907 12.8692 25.0607 12.8692C24.3837 12.8692 23.7509 13.0576 23.2171 13.4218C23.7642 13.7676 24.3667 13.9444 25.0221 13.9444ZM24.955 15.7963C24.2087 15.1021 23.1816 14.7257 22.0607 14.7257C21.6484 14.7257 21.2363 14.7811 20.8246 14.8919C20.9409 14.5377 21.0005 14.1578 21.0005 13.7743C21.0005 12.7408 20.5632 11.7818 19.7709 11.0816C19.5789 10.9029 19.2829 10.9029 19.0891 11.0832C18.3237 11.8327 17.9 12.7941 17.9 13.8103C17.9 14.8303 18.3264 15.7558 19.1277 16.5013C19.9235 17.2046 20.9158 17.572 22.0221 17.572C23.1428 17.572 24.2098 17.1592 24.9568 16.4277C25.0542 16.3371 25.1 16.2414 25.1 16.1128C25.1 15.9843 25.0542 15.8886 24.955 15.7963ZM18.8734 13.7743C18.8734 14.3623 19.08 14.9209 19.4717 15.4518C19.8316 14.9803 20.027 14.3929 20.027 13.7743C20.027 13.1531 19.8299 12.5944 19.4345 12.0958C19.0707 12.5984 18.8734 13.1866 18.8734 13.7743ZM23.8608 16.1491C23.2955 16.5068 22.6606 16.7044 22.0221 16.7044C21.3667 16.7044 20.7642 16.5276 20.2171 16.1818C20.7509 15.8176 21.3837 15.6292 22.0607 15.6292C22.6907 15.6292 23.3215 15.8119 23.8608 16.1491ZM19.0607 17.4857C20.1816 17.4857 21.2087 17.8621 21.955 18.5563C22.0542 18.6486 22.1 18.7443 22.1 18.8728C22.1 19.0014 22.0542 19.0971 21.9568 19.1877C21.2098 19.9192 20.1428 20.332 19.0221 20.332C17.9158 20.332 16.9235 19.9646 16.1277 19.2613C15.3264 18.5158 14.9 17.5903 14.9 16.5703C14.9 15.5541 15.3237 14.5927 16.0891 13.8432C16.2829 13.6629 16.5789 13.6629 16.7709 13.8416C17.5632 14.5418 18.0005 15.5008 18.0005 16.5343C18.0005 16.9178 17.9409 17.2977 17.8246 17.6519C18.2363 17.5411 18.6484 17.4857 19.0607 17.4857ZM16.4717 18.2118C16.08 17.6809 15.8734 17.1223 15.8734 16.5343C15.8734 15.9466 16.0707 15.3584 16.4345 14.8558C16.8299 15.3544 17.027 15.9131 17.027 16.5343C17.027 17.1529 16.8316 17.7403 16.4717 18.2118ZM19.0221 19.4644C19.6606 19.4644 20.2955 19.2668 20.8608 18.9091C20.3215 18.5719 19.6907 18.3892 19.0607 18.3892C18.3837 18.3892 17.7509 18.5776 17.2171 18.9418C17.7642 19.2876 18.3667 19.4644 19.0221 19.4644ZM18.955 21.3163C18.2087 20.6221 17.1816 20.2457 16.0607 20.2457C15.6484 20.2457 15.2363 20.3011 14.8246 20.4119C14.9409 20.0577 15.0005 19.6778 15.0005 19.2943C15.0005 18.2608 14.5632 17.3018 13.7709 16.6016C13.5789 16.4229 13.2829 16.4229 13.0891 16.6032C12.3237 17.3527 11.9 18.3141 11.9 19.3303C11.9 20.3503 12.3264 21.2758 13.1277 22.0213C13.9235 22.7246 14.9158 23.092 16.0221 23.092C17.1428 23.092 18.2098 22.6792 18.9568 21.9477C19.0542 21.8571 19.1 21.7614 19.1 21.6328C19.1 21.5043 19.0542 21.4086 18.955 21.3163ZM12.8734 19.2943C12.8734 19.8823 13.08 20.4409 13.4717 20.9718C13.8316 20.5003 14.027 19.9129 14.027 19.2943C14.027 18.6731 13.8299 18.1144 13.4345 17.6158C13.0707 18.1184 12.8734 18.7066 12.8734 19.2943ZM17.8608 21.6691C17.2955 22.0268 16.6606 22.2244 16.0221 22.2244C15.3667 22.2244 14.7642 22.0476 14.2171 21.7018C14.7509 21.3376 15.3837 21.1492 16.0607 21.1492C16.6907 21.1492 17.3215 21.3319 17.8608 21.6691ZM10.5027 25.0778L9.12897 26.3417C8.93371 26.5213 8.61713 26.5213 8.42187 26.3417C8.2266 26.162 8.2266 25.8708 8.42187 25.6911L9.7907 24.4318C9.20736 23.7543 8.89995 22.9563 8.89995 22.0903C8.89995 21.0741 9.32369 20.1127 10.0891 19.3632C10.2829 19.1829 10.5789 19.1829 10.7709 19.3616C11.5632 20.0618 12.0005 21.0208 12.0005 22.0543C12.0005 22.4378 11.9409 22.8177 11.8246 23.1719C12.2363 23.0611 12.6484 23.0057 13.0607 23.0057C14.1816 23.0057 15.2087 23.3821 15.955 24.0763C16.0542 24.1686 16.1 24.2643 16.1 24.3928C16.1 24.5214 16.0542 24.6171 15.9568 24.7077C15.2098 25.4392 14.1428 25.852 13.0221 25.852C12.0835 25.852 11.2268 25.5875 10.5027 25.0778ZM10.4717 23.7318C10.08 23.2009 9.87343 22.6423 9.87343 22.0543C9.87343 21.4666 10.0707 20.8784 10.4345 20.3758C10.8299 20.8744 11.027 21.4331 11.027 22.0543C11.027 22.6729 10.8316 23.2603 10.4717 23.7318ZM13.0221 24.9844C13.6606 24.9844 14.2955 24.7868 14.8608 24.4291C14.3215 24.0919 13.6907 23.9092 13.0607 23.9092C12.3837 23.9092 11.7509 24.0976 11.2171 24.4618C11.7642 24.8076 12.3667 24.9844 13.0221 24.9844ZM29.3474 9.29813C29.1522 9.11849 28.8356 9.11849 28.6403 9.29813L27.4262 10.4152C27.2309 10.5948 27.2309 10.886 27.4262 11.0657C27.6214 11.2453 27.938 11.2453 28.1333 11.0657L29.3474 9.94867C29.5427 9.76903 29.5427 9.47777 29.3474 9.29813ZM7.49894 9.03772C6.80552 9.03772 6.25888 8.53473 6.25888 7.89667C6.25888 7.26459 6.81702 6.75561 7.49894 6.75561C8.18586 6.75561 8.73901 7.26917 8.73901 7.89667C8.73901 8.52874 8.18087 9.03772 7.49894 9.03772Z"
              fill="white"/>
    </mask>
    <g mask="url(#mask0)">
        <rect width="30" height="27.6" fill="white"/>
        <rect width="30" height="27.6" fill="#3399FF"/>
        <rect width="30" height="27.6" fill="#333333"/>
    </g>
</svg>
